<svg width="258" height="54" viewBox="0 0 258 54" fill="none" xmlns="http://www.w3.org/2000/svg">
<path d="M24.6616 49.5675H0.64147C0.287294 49.5675 0 49.224 0 48.8007V4.48412C0 4.06073 0.287294 3.71729 0.64147 3.71729H24.6616C25.0158 3.71729 25.3031 4.06073 25.3031 4.48412V48.8007C25.3031 49.224 25.0158 49.5675 24.6616 49.5675Z" fill="#A3D5D3"/>
<path d="M19.6105 3.71655H5.69269V0.90239C5.69269 0.522687 5.94958 0.213837 6.2688 0.213837H19.0359C19.3536 0.213837 19.612 0.520871 19.612 0.90239V3.71655H19.6105Z" fill="#1D1D1B"/>
<path d="M54.4687 8.2547H0V44.3941H54.4687C55.4263 44.3941 56.2016 43.4673 56.2016 42.3225V10.3262C56.2016 9.18145 55.4248 8.2547 54.4687 8.2547ZM34.0389 42.1644H30.9091V38.4229H34.0389V42.1644ZM34.0389 14.1459H30.9091V10.4044H34.0389V14.1459ZM40.3837 42.1644H37.2539V38.4229H40.3837V42.1644ZM40.3944 14.1459H37.2645V10.4044H40.3944V14.1459ZM43.5987 10.4044H46.7285V14.1459H43.5987V10.4044ZM46.7331 42.1644H43.6032V38.4229H46.7331V42.1644ZM53.0733 42.1644H49.9434V38.4229H53.0733V42.1644ZM53.0733 14.1459H49.9434V10.4044H53.0733V14.1459Z" fill="#1D1D1B"/>
<path d="M5.69265 49.5675H19.6104V52.3817C19.6104 52.7614 19.3535 53.0702 19.0343 53.0702H6.26724C5.94954 53.0702 5.69113 52.7632 5.69113 52.3817V49.5675H5.69265Z" fill="#1D1D1B"/>
<path d="M69.5508 27.2184C69.5508 26.2717 69.7514 25.374 70.1512 24.5254C70.551 23.6786 71.0967 22.9391 71.7883 22.3121C72.48 21.6852 73.2917 21.1892 74.2265 20.8257C75.1598 20.4623 76.1479 20.2806 77.1907 20.2806H81.0106V17.6385H78.1012V14.5002H84.4672V20.2806H88.2872C89.3299 20.2806 90.318 20.4623 91.2513 20.8257C92.1846 21.1892 92.9979 21.6852 93.6895 22.3121C94.3811 22.9391 94.9268 23.6786 95.3266 24.5254C95.7264 25.374 95.927 26.2717 95.927 27.2184C95.927 28.1652 95.7264 29.0628 95.3266 29.9115C94.9268 30.7601 94.3811 31.496 93.6895 32.1247C92.9979 32.7516 92.1846 33.2477 91.2513 33.6112C90.318 33.9746 89.3284 34.1563 88.2872 34.1563H84.4672V38.6156H81.0106V34.1563H77.1907C76.1479 34.1563 75.1598 33.9746 74.2265 33.6112C73.2932 33.2477 72.48 32.7516 71.7883 32.1247C71.0967 31.496 70.551 30.7601 70.1512 29.9115C69.7514 29.0628 69.5508 28.1652 69.5508 27.2184ZM73.0074 27.2184C73.0074 27.7472 73.1169 28.2415 73.3342 28.7049C73.5531 29.1682 73.8495 29.5698 74.2265 29.9115C74.602 30.2531 75.0443 30.522 75.5535 30.7201C76.0628 30.9182 76.6085 31.0181 77.1907 31.0181H81.0106V23.4206H77.1907C76.6085 23.4206 76.0628 23.5205 75.5535 23.7186C75.0443 23.9167 74.602 24.1874 74.2265 24.5291C73.8495 24.8707 73.5531 25.2723 73.3342 25.7356C73.1169 26.1936 73.0074 26.6897 73.0074 27.2184ZM92.4704 27.2184C92.4704 26.6897 92.361 26.1936 92.1436 25.732C91.9247 25.2686 91.6283 24.8671 91.2513 24.5254C90.8759 24.1838 90.4335 23.9149 89.9243 23.715C89.4151 23.5169 88.8694 23.417 88.2872 23.417H84.4672V31.0145H88.2872C88.8694 31.0145 89.4151 30.9163 89.9243 30.7164C90.4335 30.5184 90.8759 30.2494 91.2513 29.9078C91.6268 29.5662 91.9247 29.1646 92.1436 28.7012C92.3625 28.2415 92.4704 27.7472 92.4704 27.2184Z" fill="#A3D5D4"/>
<path d="M99.5646 22.5353C99.5646 21.4832 99.7759 20.5074 100.201 19.6043C100.626 18.703 101.214 17.9198 101.966 17.2529C102.717 16.586 103.603 16.0663 104.622 15.6901C105.64 15.314 106.744 15.1268 107.933 15.1268C109.12 15.1268 110.225 15.314 111.243 15.6901C112.262 16.0663 113.146 16.586 113.899 17.2529C114.65 17.9198 115.238 18.703 115.664 19.6043C116.088 20.5056 116.301 21.4832 116.301 22.5353V30.9106C116.301 31.9627 116.088 32.9403 115.664 33.8416C115.24 34.7429 114.651 35.5261 113.899 36.193C113.146 36.8599 112.262 37.3796 111.243 37.7557C110.225 38.1319 109.121 38.3191 107.933 38.3191C106.744 38.3191 105.64 38.1319 104.622 37.7557C103.603 37.3796 102.717 36.8599 101.966 36.193C101.214 35.5279 100.626 34.7429 100.201 33.8416C99.7774 32.9403 99.5646 31.9627 99.5646 30.9106V22.5353ZM112.844 22.5735C112.844 21.9775 112.716 21.4196 112.462 20.8981C112.207 20.3766 111.856 19.9186 111.407 19.5261C110.959 19.1318 110.438 18.8247 109.843 18.6012C109.249 18.3777 108.612 18.2669 107.934 18.2669C107.255 18.2669 106.618 18.3795 106.023 18.6012C105.429 18.8247 104.908 19.1336 104.459 19.5261C104.011 19.9205 103.66 20.3766 103.404 20.8981C103.149 21.4196 103.023 21.9775 103.023 22.5735V30.8706C103.023 31.4666 103.15 32.0263 103.404 32.546C103.66 33.0675 104.011 33.5254 104.459 33.9179C104.908 34.3122 105.429 34.6212 106.023 34.8429C106.618 35.0664 107.255 35.1772 107.934 35.1772C108.614 35.1772 109.249 35.0664 109.843 34.8429C110.438 34.6193 110.959 34.3104 111.407 33.9179C111.856 33.5254 112.209 33.0675 112.462 32.546C112.716 32.0245 112.844 31.4666 112.844 30.8706V22.5735Z" fill="#1D1D1B"/>
<path d="M119.938 15.1595H136.127V18.2977H119.938V15.1595ZM129.761 38.2845H126.304V27.8777H119.938V24.7395H136.127V27.8777H129.761V38.2845Z" fill="#1D1D1B"/>
<path d="M139.764 22.5353C139.764 21.4832 139.976 20.5074 140.401 19.6043C140.825 18.703 141.414 17.9198 142.166 17.2529C142.917 16.586 143.803 16.0663 144.822 15.6901C145.84 15.314 146.944 15.1268 148.132 15.1268C149.32 15.1268 150.425 15.314 151.443 15.6901C152.462 16.0663 153.346 16.586 154.099 17.2529C154.85 17.9198 155.438 18.703 155.863 19.6043C156.288 20.5056 156.5 21.4832 156.5 22.5353V30.9106C156.5 31.9627 156.288 32.9403 155.863 33.8416C155.439 34.7429 154.851 35.5261 154.099 36.193C153.346 36.8599 152.462 37.3796 151.443 37.7557C150.425 38.1319 149.321 38.3191 148.132 38.3191C146.944 38.3191 145.84 38.1319 144.822 37.7557C143.803 37.3796 142.917 36.8599 142.166 36.193C141.414 35.5279 140.825 34.7429 140.401 33.8416C139.977 32.9403 139.764 31.9627 139.764 30.9106V22.5353ZM153.044 22.5735C153.044 21.9775 152.916 21.4196 152.662 20.8981C152.407 20.3766 152.056 19.9186 151.607 19.5261C151.159 19.1318 150.637 18.8247 150.043 18.6012C149.449 18.3777 148.812 18.2669 148.134 18.2669C147.454 18.2669 146.817 18.3795 146.223 18.6012C145.629 18.8247 145.107 19.1336 144.659 19.5261C144.211 19.9205 143.859 20.3766 143.604 20.8981C143.349 21.4196 143.223 21.9775 143.223 22.5735V30.8706C143.223 31.4666 143.35 32.0263 143.604 32.546C143.859 33.0675 144.211 33.5254 144.659 33.9179C145.107 34.3122 145.629 34.6212 146.223 34.8429C146.817 35.0664 147.454 35.1772 148.134 35.1772C148.813 35.1772 149.449 35.0664 150.043 34.8429C150.637 34.6193 151.159 34.3104 151.607 33.9179C152.056 33.5254 152.408 33.0675 152.662 32.546C152.916 32.0245 153.044 31.4666 153.044 30.8706V22.5735Z" fill="#1D1D1B"/>
<path d="M161.594 22.5353C161.594 21.4832 161.805 20.5074 162.231 19.6043C162.655 18.703 163.243 17.9198 163.996 17.2529C164.747 16.586 165.633 16.0663 166.651 15.6901C167.67 15.314 168.773 15.1268 169.962 15.1268C171.345 15.1268 172.502 15.3612 173.437 15.8319C174.37 16.3025 175.141 16.8113 175.748 17.3601C176.425 18.0252 176.985 18.7702 177.421 19.5934L174.51 21.167C174.267 20.6201 173.94 20.144 173.528 19.7333C173.188 19.3699 172.721 19.0337 172.128 18.7266C171.534 18.4195 170.812 18.265 169.964 18.265C169.284 18.265 168.647 18.3777 168.053 18.5994C167.459 18.8229 166.937 19.1318 166.489 19.5243C166.04 19.9186 165.689 20.3747 165.434 20.8963C165.178 21.4178 165.052 21.9757 165.052 22.5717V30.8688C165.052 31.4648 165.18 32.0245 165.434 32.5442C165.689 33.0657 166.04 33.5236 166.489 33.9161C166.937 34.3104 167.459 34.6193 168.053 34.841C168.647 35.0646 169.284 35.1754 169.964 35.1754C170.812 35.1754 171.534 35.0391 172.128 34.7665C172.723 34.494 173.189 34.1887 173.528 33.8525C173.94 33.4745 174.268 33.0239 174.51 32.4987L177.421 34.0742C176.985 34.8792 176.427 35.5861 175.748 36.1948C175.141 36.7381 174.37 37.2288 173.437 37.6631C172.504 38.0974 171.345 38.3154 169.962 38.3154C168.773 38.3154 167.67 38.1282 166.651 37.7521C165.633 37.376 164.747 36.8563 163.996 36.1894C163.243 35.5243 162.655 34.7393 162.231 33.838C161.807 32.9367 161.594 31.959 161.594 30.9069V22.5353Z" fill="#A3D5D4"/>
<path d="M179.238 15.1595H195.426V18.2977H179.238V15.1595ZM189.06 38.2845H185.604V27.8777H179.238V24.7395H195.426V27.8777H189.06V38.2845V38.2845Z" fill="#1D1D1B"/>
<path d="M199.065 22.5353C199.065 21.4832 199.277 20.5074 199.702 19.6043C200.126 18.703 200.715 17.9198 201.467 17.2529C202.218 16.586 203.104 16.0663 204.123 15.6901C205.141 15.314 206.245 15.1268 207.433 15.1268C208.621 15.1268 209.726 15.314 210.744 15.6901C211.763 16.0663 212.647 16.586 213.4 17.2529C214.151 17.9198 214.739 18.703 215.164 19.6043C215.589 20.5056 215.801 21.4832 215.801 22.5353V30.9106C215.801 31.9627 215.589 32.9403 215.164 33.8416C214.74 34.7429 214.152 35.5261 213.4 36.193C212.647 36.8599 211.763 37.3796 210.744 37.7557C209.726 38.1319 208.622 38.3191 207.433 38.3191C206.245 38.3191 205.141 38.1319 204.123 37.7557C203.104 37.3796 202.218 36.8599 201.467 36.193C200.715 35.5279 200.126 34.7429 199.702 33.8416C199.278 32.9403 199.065 31.9627 199.065 30.9106V22.5353ZM212.343 22.5735C212.343 21.9775 212.216 21.4196 211.962 20.8981C211.706 20.3766 211.355 19.9186 210.907 19.5261C210.458 19.1318 209.937 18.8247 209.343 18.6012C208.748 18.3777 208.111 18.2669 207.433 18.2669C206.754 18.2669 206.117 18.3795 205.523 18.6012C204.928 18.8247 204.407 19.1336 203.958 19.5261C203.51 19.9205 203.159 20.3766 202.904 20.8981C202.648 21.4196 202.522 21.9775 202.522 22.5735V30.8706C202.522 31.4666 202.65 32.0263 202.904 32.546C203.159 33.0675 203.51 33.5254 203.958 33.9179C204.407 34.3122 204.928 34.6212 205.523 34.8429C206.117 35.0664 206.754 35.1772 207.433 35.1772C208.113 35.1772 208.748 35.0664 209.343 34.8429C209.937 34.6193 210.458 34.3104 210.907 33.9179C211.355 33.5254 211.708 33.0675 211.962 32.546C212.216 32.0245 212.343 31.4666 212.343 30.8706V22.5735Z" fill="#1D1D1B"/>
<path d="M233.808 21.7667C233.808 20.7745 233.445 19.9495 232.717 19.2881C231.989 18.6266 231.08 18.2959 229.988 18.2959H218.711V15.1577H229.988C230.982 15.1577 231.922 15.334 232.808 15.6865C233.693 16.039 234.463 16.5133 235.118 17.1075C235.774 17.7017 236.295 18.4013 236.683 19.2045C237.07 20.0095 237.265 20.8617 237.265 21.7649C237.265 22.668 237.07 23.5202 236.683 24.3252C236.295 25.1302 235.774 25.828 235.118 26.4222C234.463 27.0164 233.693 27.4907 232.808 27.8432C231.922 28.1957 230.982 28.372 229.988 28.372H225.077V38.2827H221.62V25.2338H229.988C231.08 25.2338 231.989 24.9031 232.717 24.2416C233.445 23.5838 233.808 22.757 233.808 21.7667Z" fill="#1D1D1B"/>
<path d="M241.994 38.2845V18.2977H239.083V15.1595H245.449V32.0081L254.543 15.1595H258V38.2845H254.543V21.4359L245.449 38.2845H241.994Z" fill="#1D1D1B"/>
<path d="M52.8696 17.4313H31.0475V35.8553H52.8696V17.4313Z" fill="#A3D5D4"/>
</svg>
